<svg xmlns="http://www.w3.org/2000/svg" xmlns:xlink="http://www.w3.org/1999/xlink" preserveAspectRatio="xMidYMid" width="70" height="78" viewBox="0 0 70 78">
  <defs>
    <style>
      .cls-1 {
        fill: #737373;
      }

      .cls-1, .cls-2 {
        fill-rule: evenodd;
      }

      .cls-2 {
        fill: #423e3e;
      }
    </style>
  </defs>
  <g>
    <path d="M57.428,61.000 L14.571,61.000 C12.598,61.000 10.999,59.395 10.999,57.416 L10.999,21.583 C10.999,19.604 12.598,18.000 14.571,18.000 L57.428,18.000 C59.400,18.000 60.999,19.604 60.999,21.583 L60.999,57.416 C60.999,59.395 59.400,61.000 57.428,61.000 ZM17.249,20.687 C16.263,20.687 15.464,21.489 15.464,22.479 C15.464,23.468 16.263,24.271 17.249,24.271 C18.235,24.271 19.035,23.468 19.035,22.479 C19.035,21.489 18.235,20.687 17.249,20.687 ZM22.606,20.687 C21.620,20.687 20.821,21.489 20.821,22.479 C20.821,23.468 21.620,24.271 22.606,24.271 C23.593,24.271 24.392,23.468 24.392,22.479 C24.392,21.489 23.593,20.687 22.606,20.687 ZM28.075,20.687 C27.089,20.687 26.289,21.489 26.289,22.479 C26.289,23.468 27.089,24.271 28.075,24.271 C29.061,24.271 29.861,23.468 29.861,22.479 C29.861,21.489 29.061,20.687 28.075,20.687 ZM57.000,21.000 L32.000,21.000 L32.000,24.000 L57.000,24.000 L57.000,21.000 ZM57.000,27.000 L15.000,27.000 L15.000,57.000 L57.000,57.000 L57.000,27.000 Z" class="cls-1"/>
    <path d="M-161.918,61.994 L-163.012,63.086 C-164.220,64.293 -166.179,64.293 -167.387,63.086 L-176.135,54.349 C-177.150,53.336 -177.260,51.819 -176.572,50.636 L-181.355,45.860 C-183.927,47.766 -187.101,48.908 -190.551,48.908 C-199.092,48.908 -206.017,41.992 -206.017,33.462 C-206.017,24.931 -199.092,18.016 -190.551,18.016 C-182.009,18.016 -175.085,24.931 -175.085,33.462 C-175.085,37.433 -176.598,41.042 -179.064,43.779 L-174.385,48.452 C-173.201,47.764 -171.681,47.875 -170.667,48.888 L-161.918,57.626 C-160.710,58.832 -160.710,60.788 -161.918,61.994 ZM-178.983,33.397 C-178.983,27.000 -184.177,21.813 -190.583,21.813 C-192.367,21.813 -194.037,22.248 -195.548,22.967 C-194.740,23.795 -193.523,25.033 -193.458,25.033 C-194.715,25.033 -198.829,29.142 -198.829,30.494 C-198.829,30.428 -200.139,29.187 -200.996,28.382 C-201.733,29.905 -202.183,31.592 -202.183,33.397 C-202.183,39.795 -196.989,44.982 -190.583,44.982 C-184.177,44.982 -178.983,39.795 -178.983,33.397 Z" class="cls-1"/>
    <path d="M-399.449,65.000 L-442.552,65.000 C-444.457,65.000 -446.001,63.433 -446.001,61.500 L-446.001,31.750 C-446.001,29.817 -444.457,28.250 -442.552,28.250 L-439.104,28.250 L-439.104,23.000 L-425.311,23.109 L-425.317,28.280 L-399.449,28.250 C-397.545,28.250 -396.001,29.817 -396.001,31.750 L-396.001,61.500 C-396.001,63.433 -397.545,65.000 -399.449,65.000 ZM-428.759,26.500 L-435.656,26.500 L-435.656,31.750 L-428.759,31.750 L-428.759,26.500 ZM-427.035,35.177 C-433.701,35.177 -439.104,40.661 -439.104,47.427 C-439.104,54.192 -433.701,59.677 -427.035,59.677 C-420.370,59.677 -414.966,54.192 -414.966,47.427 C-414.966,40.661 -420.370,35.177 -427.035,35.177 ZM-403.759,32.661 C-405.664,32.661 -407.208,34.228 -407.208,36.161 C-407.208,38.094 -405.664,39.661 -403.759,39.661 C-401.855,39.661 -400.311,38.094 -400.311,36.161 C-400.311,34.228 -401.855,32.661 -403.759,32.661 ZM-427.034,55.593 C-431.319,55.593 -434.793,52.068 -434.793,47.719 C-434.793,43.369 -431.319,39.844 -427.034,39.844 C-422.750,39.844 -419.276,43.369 -419.276,47.719 C-419.276,52.068 -422.750,55.593 -427.034,55.593 Z" class="cls-2"/>
    <path d="M-638.562,62.267 L-639.593,62.267 C-639.761,62.873 -640.002,63.448 -640.309,63.981 L-639.356,64.934 C-638.746,65.544 -638.746,66.532 -639.356,67.142 L-639.908,67.694 C-640.518,68.304 -641.507,68.304 -642.117,67.694 L-643.077,66.735 C-643.609,67.038 -644.182,67.274 -644.786,67.439 L-644.786,68.439 C-644.786,69.301 -645.486,70.000 -646.348,70.000 L-647.130,70.000 C-647.992,70.000 -648.692,69.301 -648.692,68.439 L-648.692,67.439 C-649.296,67.274 -649.869,67.038 -650.402,66.735 L-651.361,67.694 C-651.971,68.304 -652.960,68.304 -653.570,67.694 L-654.122,67.142 C-654.732,66.532 -654.732,65.544 -654.122,64.934 L-653.169,63.981 C-653.476,63.448 -653.717,62.873 -653.885,62.267 L-654.916,62.267 C-655.779,62.267 -656.478,61.568 -656.478,60.705 L-656.478,59.925 C-656.478,59.063 -655.779,58.364 -654.916,58.364 L-653.897,58.364 C-653.736,57.763 -653.505,57.191 -653.206,56.661 L-654.122,55.745 C-654.732,55.135 -654.732,54.146 -654.122,53.537 L-653.570,52.985 C-652.960,52.375 -651.971,52.375 -651.361,52.985 L-650.462,53.883 C-649.913,53.563 -649.319,53.314 -648.692,53.143 L-648.692,52.094 C-648.692,51.232 -647.992,50.533 -647.130,50.533 L-646.348,50.533 C-645.486,50.533 -644.786,51.232 -644.786,52.094 L-644.786,53.143 C-644.159,53.314 -643.565,53.563 -643.016,53.883 L-642.117,52.985 C-641.507,52.375 -640.518,52.375 -639.908,52.985 L-639.356,53.537 C-638.746,54.146 -638.746,55.135 -639.356,55.745 L-640.272,56.661 C-639.974,57.191 -639.743,57.763 -639.581,58.364 L-638.562,58.364 C-637.700,58.364 -637.000,59.063 -637.000,59.925 L-637.000,60.705 C-637.000,61.568 -637.700,62.267 -638.562,62.267 ZM-646.739,56.046 C-649.112,56.046 -651.035,57.968 -651.035,60.340 C-651.035,62.711 -649.112,64.633 -646.739,64.633 C-644.367,64.633 -642.443,62.711 -642.443,60.340 C-642.443,57.968 -644.367,56.046 -646.739,56.046 ZM-646.739,62.242 C-647.818,62.242 -648.692,61.369 -648.692,60.291 C-648.692,59.213 -647.818,58.339 -646.739,58.339 C-645.661,58.339 -644.786,59.213 -644.786,60.291 C-644.786,61.369 -645.661,62.242 -646.739,62.242 ZM-650.060,36.193 L-652.187,36.193 C-652.532,37.444 -653.029,38.629 -653.662,39.729 L-651.697,41.694 C-650.439,42.951 -650.439,44.989 -651.697,46.246 L-652.835,47.384 C-654.093,48.642 -656.133,48.642 -657.390,47.384 L-659.368,45.407 C-660.466,46.032 -661.648,46.518 -662.894,46.857 L-662.894,48.919 C-662.894,50.697 -664.336,52.138 -666.115,52.138 L-667.725,52.138 C-669.504,52.138 -670.946,50.697 -670.946,48.919 L-670.946,46.857 C-672.192,46.518 -673.374,46.032 -674.471,45.407 L-676.449,47.384 C-677.707,48.642 -679.746,48.642 -681.004,47.384 L-682.143,46.246 C-683.401,44.989 -683.401,42.951 -682.143,41.694 L-680.177,39.729 C-680.811,38.629 -681.307,37.444 -681.653,36.193 L-683.779,36.193 C-685.558,36.193 -687.000,34.752 -687.000,32.974 L-687.000,31.365 C-687.000,29.587 -685.558,28.146 -683.779,28.146 L-681.679,28.146 C-681.346,26.907 -680.869,25.728 -680.253,24.635 L-682.143,22.746 C-683.401,21.489 -683.401,19.451 -682.143,18.193 L-681.004,17.055 C-679.746,15.798 -677.707,15.798 -676.449,17.055 L-674.597,18.907 C-673.463,18.248 -672.240,17.734 -670.946,17.382 L-670.946,15.219 C-670.946,13.441 -669.504,12.000 -667.725,12.000 L-666.115,12.000 C-664.336,12.000 -662.894,13.441 -662.894,15.219 L-662.894,17.381 C-661.600,17.734 -660.376,18.248 -659.243,18.907 L-657.390,17.055 C-656.133,15.798 -654.093,15.798 -652.835,17.055 L-651.697,18.193 C-650.439,19.451 -650.439,21.489 -651.697,22.746 L-653.586,24.635 C-652.970,25.728 -652.494,26.907 -652.161,28.146 L-650.060,28.146 C-648.282,28.146 -646.839,29.587 -646.839,31.365 L-646.839,32.974 C-646.839,34.752 -648.282,36.193 -650.060,36.193 ZM-666.920,23.367 C-671.812,23.367 -675.777,27.331 -675.777,32.220 C-675.777,37.109 -671.812,41.073 -666.920,41.073 C-662.028,41.073 -658.062,37.109 -658.062,32.220 C-658.062,27.331 -662.028,23.367 -666.920,23.367 ZM-666.920,36.143 C-669.143,36.143 -670.946,34.342 -670.946,32.119 C-670.946,29.897 -669.143,28.095 -666.920,28.095 C-664.696,28.095 -662.894,29.897 -662.894,32.119 C-662.894,34.342 -664.696,36.143 -666.920,36.143 Z" class="cls-1"/>
  </g>
</svg>
