<svg xmlns="http://www.w3.org/2000/svg" xmlns:xlink="http://www.w3.org/1999/xlink" preserveAspectRatio="xMidYMid" width="39" height="39" viewBox="0 0 39 39">
  <defs>
    <style>
      .cls-1 {
        fill: #dadada;
        fill-rule: evenodd;
      }
    </style>
  </defs>
  <g>
    <path d="M19.274,36.000 C10.037,36.000 2.549,28.447 2.549,19.132 C2.549,9.815 10.037,2.264 19.274,2.264 C28.511,2.264 36.000,9.815 36.000,19.132 C36.000,28.447 28.511,36.000 19.274,36.000 ZM19.274,6.481 C12.346,6.481 6.730,12.144 6.730,19.132 C6.730,26.118 12.346,31.783 19.274,31.783 C26.202,31.783 31.819,26.118 31.819,19.132 C31.819,12.144 26.202,6.481 19.274,6.481 ZM26.043,22.015 C25.858,22.455 25.630,22.878 25.366,23.275 C25.102,23.666 24.800,24.035 24.469,24.371 C24.137,24.705 23.771,25.009 23.383,25.274 C22.989,25.542 22.569,25.772 22.134,25.958 C21.689,26.147 21.226,26.292 20.754,26.389 C20.269,26.490 19.772,26.540 19.274,26.540 C18.776,26.540 18.279,26.490 17.795,26.389 C17.322,26.292 16.858,26.147 16.414,25.958 C15.979,25.772 15.559,25.542 15.165,25.274 C14.777,25.009 14.412,24.705 14.079,24.371 C13.748,24.035 13.446,23.666 13.183,23.275 C12.918,22.878 12.690,22.455 12.506,22.015 C12.318,21.568 12.174,21.100 12.078,20.624 C11.978,20.135 11.928,19.633 11.928,19.132 C11.928,18.629 11.978,18.128 12.078,17.639 C12.174,17.163 12.318,16.695 12.506,16.247 C12.690,15.808 12.918,15.384 13.183,14.988 C13.446,14.596 13.748,14.228 14.079,13.893 C14.412,13.558 14.777,13.254 15.165,12.988 C15.559,12.720 15.979,12.491 16.414,12.305 C16.858,12.116 17.322,11.971 17.795,11.873 C18.279,11.773 18.776,11.723 19.274,11.723 C19.772,11.723 20.269,11.773 20.754,11.873 C21.226,11.971 21.689,12.116 22.134,12.305 C22.569,12.491 22.989,12.720 23.383,12.988 C23.771,13.254 24.137,13.558 24.469,13.893 C24.800,14.228 25.102,14.596 25.366,14.988 C25.630,15.384 25.858,15.808 26.043,16.247 C26.230,16.695 26.374,17.163 26.471,17.639 C26.571,18.128 26.620,18.629 26.620,19.132 C26.620,19.633 26.571,20.135 26.471,20.624 C26.374,21.100 26.230,21.568 26.043,22.015 ZM22.756,24.242 C23.064,24.027 23.357,23.784 23.622,23.516 C23.901,23.235 24.153,22.927 24.373,22.599 C24.595,22.267 24.786,21.913 24.940,21.545 C25.098,21.171 25.218,20.780 25.299,20.381 C25.317,20.287 25.326,20.191 25.341,20.097 C25.290,20.082 25.221,20.063 25.143,20.043 C25.131,20.040 25.119,20.036 25.106,20.033 C24.929,19.989 24.695,19.937 24.413,19.890 C24.412,19.890 24.411,19.889 24.409,19.889 C23.686,19.769 22.662,19.685 21.557,19.864 C22.305,21.942 22.653,23.669 22.756,24.242 ZM15.836,24.274 C16.166,24.497 16.516,24.690 16.880,24.845 C17.252,25.004 17.640,25.125 18.034,25.207 C18.440,25.290 18.856,25.333 19.274,25.333 C19.692,25.333 20.109,25.290 20.513,25.207 C20.908,25.125 21.297,25.004 21.667,24.845 C21.679,24.841 21.690,24.834 21.702,24.829 C21.580,24.146 21.206,22.313 20.382,20.154 C20.369,20.159 20.356,20.162 20.342,20.167 C19.968,20.298 19.625,20.446 19.300,20.601 C19.254,20.623 19.205,20.644 19.160,20.667 C18.858,20.816 18.580,20.973 18.321,21.135 C18.272,21.165 18.224,21.195 18.177,21.226 C17.926,21.389 17.692,21.554 17.481,21.721 C17.447,21.747 17.417,21.773 17.384,21.800 C17.170,21.973 16.969,22.147 16.794,22.317 C16.794,22.318 16.794,22.318 16.794,22.318 C16.615,22.491 16.461,22.658 16.320,22.820 C16.300,22.842 16.279,22.865 16.260,22.888 C16.132,23.038 16.021,23.179 15.924,23.310 C15.906,23.335 15.888,23.359 15.871,23.383 C15.782,23.507 15.704,23.623 15.643,23.720 C15.633,23.737 15.624,23.751 15.615,23.767 C15.557,23.861 15.508,23.945 15.477,24.003 C15.595,24.096 15.713,24.190 15.836,24.274 ZM13.135,18.932 C13.133,18.999 13.125,19.065 13.125,19.132 C13.125,19.553 13.168,19.973 13.250,20.381 C13.331,20.780 13.451,21.171 13.609,21.545 C13.763,21.913 13.954,22.267 14.175,22.599 C14.326,22.822 14.509,23.020 14.686,23.223 C14.728,23.156 14.791,23.060 14.864,22.953 C14.877,22.933 14.886,22.919 14.900,22.899 C14.978,22.787 15.072,22.658 15.180,22.517 C15.201,22.490 15.221,22.464 15.243,22.435 C15.359,22.288 15.487,22.131 15.634,21.963 C15.656,21.938 15.679,21.913 15.702,21.888 C15.861,21.710 16.033,21.526 16.228,21.337 C16.417,21.153 16.628,20.967 16.851,20.783 C16.886,20.755 16.917,20.727 16.952,20.699 C17.170,20.523 17.406,20.352 17.655,20.187 C17.702,20.156 17.749,20.125 17.797,20.095 C18.054,19.931 18.324,19.776 18.610,19.633 C18.653,19.612 18.698,19.593 18.742,19.572 C19.049,19.427 19.368,19.291 19.709,19.180 C19.789,19.154 19.870,19.134 19.951,19.111 C19.792,18.749 19.625,18.385 19.444,18.028 C16.906,18.793 14.456,18.916 13.467,18.930 L13.467,18.930 C13.326,18.932 13.212,18.933 13.135,18.932 ZM16.676,13.517 C16.385,13.654 16.101,13.808 15.836,13.989 C15.511,14.211 15.205,14.465 14.927,14.746 C14.647,15.026 14.396,15.335 14.175,15.664 C13.954,15.996 13.763,16.350 13.609,16.717 C13.458,17.075 13.344,17.448 13.264,17.827 C13.329,17.827 13.419,17.827 13.530,17.824 C13.532,17.824 13.536,17.824 13.538,17.824 C13.763,17.819 14.076,17.808 14.457,17.783 C14.458,17.783 14.459,17.783 14.460,17.783 C15.419,17.719 16.810,17.565 18.348,17.200 C18.348,17.200 18.348,17.200 18.349,17.199 C18.539,17.155 18.732,17.106 18.926,17.054 C17.968,15.336 16.958,13.908 16.676,13.517 ZM22.712,13.989 C22.384,13.766 22.032,13.573 21.667,13.417 C21.296,13.259 20.908,13.138 20.513,13.056 C20.109,12.972 19.692,12.930 19.274,12.930 C18.856,12.930 18.440,12.972 18.034,13.056 C17.982,13.066 17.931,13.084 17.880,13.096 C18.181,13.506 19.197,14.928 20.135,16.665 C20.380,16.572 20.610,16.473 20.824,16.373 C20.828,16.371 20.832,16.369 20.836,16.367 C22.342,15.655 23.095,14.801 23.328,14.501 C23.128,14.324 22.932,14.139 22.712,13.989 ZM25.299,17.881 C25.218,17.483 25.098,17.093 24.940,16.717 C24.786,16.350 24.595,15.996 24.373,15.664 C24.271,15.511 24.140,15.380 24.024,15.237 C23.772,15.555 22.942,16.463 21.373,17.261 C21.357,17.269 21.340,17.277 21.323,17.285 C21.102,17.396 20.870,17.503 20.619,17.607 C20.767,17.912 20.910,18.221 21.042,18.534 C21.089,18.645 21.128,18.752 21.173,18.862 C21.396,18.834 21.618,18.814 21.838,18.801 C21.876,18.798 21.912,18.797 21.949,18.795 C22.138,18.785 22.322,18.779 22.505,18.777 C22.536,18.777 22.567,18.776 22.598,18.776 C22.807,18.776 23.011,18.780 23.207,18.788 C23.222,18.789 23.236,18.790 23.250,18.790 C23.428,18.798 23.598,18.809 23.763,18.823 C23.802,18.825 23.840,18.828 23.879,18.832 C24.039,18.846 24.192,18.861 24.334,18.877 C24.343,18.878 24.354,18.879 24.363,18.880 C24.516,18.898 24.653,18.917 24.782,18.935 C24.814,18.940 24.842,18.944 24.873,18.949 C24.969,18.964 25.055,18.977 25.132,18.991 C25.154,18.994 25.176,18.998 25.196,19.001 C25.287,19.017 25.362,19.031 25.419,19.043 C25.413,18.652 25.375,18.262 25.299,17.881 Z" class="cls-1"/>
    <path d="M-22.540,36.000 C-31.778,36.000 -39.266,28.447 -39.266,19.132 C-39.266,9.815 -31.778,2.264 -22.540,2.264 C-13.303,2.264 -5.814,9.815 -5.814,19.132 C-5.814,28.447 -13.303,36.000 -22.540,36.000 ZM-22.540,6.481 C-29.468,6.481 -35.084,12.144 -35.084,19.132 C-35.084,26.118 -29.468,31.783 -22.540,31.783 C-15.612,31.783 -9.996,26.118 -9.996,19.132 C-9.996,12.144 -15.612,6.481 -22.540,6.481 ZM-17.311,19.170 L-18.366,19.162 L-18.352,17.012 L-20.484,17.012 L-20.484,15.946 L-18.382,15.946 L-18.382,13.841 L-17.292,13.828 L-17.279,15.998 L-15.225,15.998 L-15.225,17.014 L-17.311,17.014 L-17.311,19.170 ZM-23.101,14.449 C-22.317,14.753 -21.900,15.674 -21.900,16.619 C-21.900,17.412 -22.337,18.095 -22.952,18.581 C-23.553,19.054 -23.667,19.252 -23.667,19.655 C-23.667,19.999 -23.024,20.583 -22.686,20.823 C-21.702,21.525 -21.384,22.177 -21.384,23.265 C-21.384,24.622 -22.686,25.971 -25.045,25.971 C-27.113,25.971 -28.858,25.123 -28.858,23.765 C-28.858,22.388 -27.293,21.033 -25.224,21.033 C-24.999,21.033 -24.766,21.053 -24.552,21.053 C-24.835,20.775 -25.024,20.486 -25.024,20.067 C-25.024,19.818 -24.980,19.526 -24.869,19.314 C-24.982,19.322 -25.097,19.324 -25.216,19.324 C-26.914,19.324 -28.052,18.105 -28.052,16.595 C-28.052,15.117 -26.481,13.841 -24.811,13.841 C-23.880,13.841 -21.086,13.841 -21.086,13.841 L-21.920,14.449 L-23.101,14.449 ZM-24.804,21.409 C-26.233,21.393 -27.514,22.287 -27.514,23.362 C-27.514,24.458 -26.482,25.371 -25.052,25.371 C-23.043,25.371 -22.342,24.515 -22.342,23.418 C-22.342,23.286 -22.358,23.157 -22.387,23.031 C-22.545,22.410 -23.101,22.102 -23.877,21.558 C-24.160,21.466 -24.470,21.412 -24.804,21.409 ZM-23.239,16.693 C-23.405,15.422 -24.317,14.402 -25.276,14.373 C-26.236,14.344 -26.879,15.317 -26.714,16.589 C-26.548,17.859 -25.636,18.912 -24.676,18.941 C-23.717,18.970 -23.074,17.964 -23.239,16.693 Z" class="cls-1"/>
    <path d="M-64.354,36.000 C-73.592,36.000 -81.080,28.447 -81.080,19.132 C-81.080,9.815 -73.592,2.264 -64.354,2.264 C-55.118,2.264 -47.628,9.815 -47.628,19.132 C-47.628,28.447 -55.118,36.000 -64.354,36.000 ZM-64.354,6.481 C-71.282,6.481 -76.899,12.144 -76.899,19.132 C-76.899,26.118 -71.282,31.783 -64.354,31.783 C-57.427,31.783 -51.810,26.118 -51.810,19.132 C-51.810,12.144 -57.427,6.481 -64.354,6.481 ZM-63.270,22.721 C-64.142,22.721 -64.961,22.246 -65.242,21.707 C-65.242,21.707 -65.711,23.582 -65.809,23.944 C-66.159,25.223 -67.187,26.503 -67.266,26.609 C-67.323,26.682 -67.446,26.659 -67.459,26.562 C-67.481,26.399 -67.743,24.785 -67.434,23.468 C-67.279,22.807 -66.396,19.032 -66.396,19.032 C-66.396,19.032 -66.654,18.513 -66.654,17.744 C-66.654,16.538 -65.960,15.637 -65.097,15.637 C-64.363,15.637 -64.008,16.193 -64.008,16.859 C-64.008,17.604 -64.479,18.716 -64.721,19.747 C-64.924,20.612 -64.291,21.316 -63.447,21.316 C-61.918,21.316 -60.888,19.335 -60.888,16.988 C-60.888,15.203 -62.079,13.868 -64.246,13.868 C-66.694,13.868 -68.221,15.710 -68.221,17.767 C-68.221,18.476 -68.013,18.977 -67.688,19.363 C-67.539,19.541 -67.518,19.613 -67.572,19.817 C-67.611,19.967 -67.699,20.327 -67.737,20.470 C-67.791,20.677 -67.956,20.750 -68.141,20.674 C-69.268,20.210 -69.794,18.964 -69.794,17.564 C-69.794,15.252 -67.860,12.479 -64.025,12.479 C-60.943,12.479 -58.915,14.727 -58.915,17.142 C-58.915,20.336 -60.675,22.721 -63.270,22.721 Z" class="cls-1"/>
    <path d="M-106.168,36.000 C-115.406,36.000 -122.894,28.447 -122.894,19.132 C-122.894,9.815 -115.406,2.264 -106.168,2.264 C-96.932,2.264 -89.443,9.815 -89.443,19.132 C-89.443,28.447 -96.932,36.000 -106.168,36.000 ZM-106.168,6.481 C-113.096,6.481 -118.713,12.144 -118.713,19.132 C-118.713,26.118 -113.096,31.783 -106.168,31.783 C-99.241,31.783 -93.624,26.118 -93.624,19.132 C-93.624,12.144 -99.241,6.481 -106.168,6.481 ZM-110.455,15.489 L-110.455,13.509 C-104.826,13.509 -100.263,18.113 -100.263,23.788 L-102.227,23.788 C-102.227,19.212 -105.916,15.489 -110.455,15.489 ZM-103.831,23.788 L-105.795,23.788 C-105.795,21.196 -107.886,19.087 -110.455,19.087 L-110.455,17.107 C-106.795,17.107 -103.831,20.100 -103.831,23.788 ZM-109.254,21.365 C-108.590,21.365 -108.052,21.907 -108.052,22.576 C-108.052,23.246 -108.590,23.788 -109.254,23.788 C-109.917,23.788 -110.455,23.246 -110.455,22.576 C-110.455,21.907 -109.917,21.365 -109.254,21.365 Z" class="cls-1"/>
    <path d="M-147.460,35.736 C-156.698,35.736 -164.186,28.184 -164.186,18.868 C-164.186,9.552 -156.698,2.000 -147.460,2.000 C-138.223,2.000 -130.734,9.552 -130.734,18.868 C-130.734,28.184 -138.223,35.736 -147.460,35.736 ZM-147.460,6.217 C-154.388,6.217 -160.005,11.881 -160.005,18.868 C-160.005,25.855 -154.388,31.519 -147.460,31.519 C-140.533,31.519 -134.916,25.855 -134.916,18.868 C-134.916,11.881 -140.533,6.217 -147.460,6.217 ZM-146.977,15.526 L-146.980,16.718 L-144.881,16.718 L-145.334,19.110 L-146.917,19.110 L-146.909,25.466 L-149.556,25.474 L-149.564,19.127 L-151.131,19.110 L-151.131,16.710 L-149.547,16.701 L-149.499,15.391 C-149.499,13.589 -148.882,12.460 -146.777,12.460 L-144.843,12.468 L-144.834,14.597 L-145.858,14.671 C-146.678,14.671 -146.977,14.951 -146.977,15.526 Z" class="cls-1"/>
  </g>
</svg>
