<svg xmlns="http://www.w3.org/2000/svg" xmlns:xlink="http://www.w3.org/1999/xlink" preserveAspectRatio="xMidYMid" width="39" height="39" viewBox="0 0 39 39">
  <defs>
    <style>
      .cls-1 {
        fill: #dadada;
        fill-rule: evenodd;
      }
    </style>
  </defs>
  <g>
    <path d="M19.540,35.736 C10.302,35.736 2.814,28.184 2.814,18.868 C2.814,9.552 10.302,2.000 19.540,2.000 C28.777,2.000 36.266,9.552 36.266,18.868 C36.266,28.184 28.777,35.736 19.540,35.736 ZM19.540,6.217 C12.612,6.217 6.995,11.881 6.995,18.868 C6.995,25.855 12.612,31.519 19.540,31.519 C26.467,31.519 32.084,25.855 32.084,18.868 C32.084,11.881 26.467,6.217 19.540,6.217 ZM20.023,15.526 L20.020,16.718 L22.119,16.718 L21.666,19.110 L20.083,19.110 L20.091,25.466 L17.444,25.474 L17.436,19.127 L15.869,19.110 L15.869,16.710 L17.453,16.701 L17.501,15.391 C17.501,13.589 18.118,12.460 20.223,12.460 L22.157,12.468 L22.166,14.597 L21.142,14.671 C20.322,14.671 20.023,14.951 20.023,15.526 Z" class="cls-1"/>
    <path d="M-22.274,35.736 C-31.512,35.736 -39.000,28.184 -39.000,18.868 C-39.000,9.552 -31.512,2.000 -22.274,2.000 C-13.038,2.000 -5.549,9.552 -5.549,18.868 C-5.549,28.184 -13.038,35.736 -22.274,35.736 ZM-22.274,6.217 C-29.202,6.217 -34.819,11.881 -34.819,18.868 C-34.819,25.855 -29.202,31.519 -22.274,31.519 C-15.347,31.519 -9.730,25.855 -9.730,18.868 C-9.730,11.881 -15.347,6.217 -22.274,6.217 ZM-17.134,16.646 C-17.129,16.762 -17.127,16.879 -17.127,16.997 C-17.127,20.577 -19.829,24.707 -24.772,24.707 C-26.289,24.707 -27.701,24.258 -28.891,23.489 C-28.680,23.514 -28.467,23.527 -28.250,23.527 C-26.991,23.527 -25.832,23.094 -24.913,22.367 C-26.088,22.345 -27.081,21.562 -27.423,20.485 C-27.258,20.517 -27.090,20.534 -26.917,20.534 C-26.672,20.534 -26.435,20.501 -26.209,20.438 C-27.438,20.189 -28.364,19.094 -28.364,17.781 C-28.364,17.770 -28.364,17.759 -28.364,17.747 C-28.002,17.950 -27.588,18.072 -27.147,18.086 C-27.868,17.600 -28.343,16.771 -28.343,15.831 C-28.343,15.334 -28.210,14.868 -27.979,14.468 C-26.653,16.108 -24.674,17.187 -22.441,17.299 C-22.486,17.101 -22.510,16.894 -22.510,16.682 C-22.510,15.186 -21.307,13.972 -19.823,13.972 C-19.050,13.972 -18.352,14.302 -17.862,14.828 C-17.250,14.707 -16.675,14.481 -16.156,14.171 C-16.356,14.803 -16.782,15.334 -17.337,15.670 C-16.793,15.604 -16.275,15.459 -15.794,15.243 C-16.154,15.786 -16.609,16.264 -17.134,16.646 Z" class="cls-1"/>
  </g>
</svg>
