<svg xmlns="http://www.w3.org/2000/svg" xmlns:xlink="http://www.w3.org/1999/xlink" preserveAspectRatio="xMidYMid" width="39" height="39" viewBox="0 0 39 39">
  <defs>
    <style>
      .cls-1 {
        fill: #dadada;
        fill-rule: evenodd;
      }
    </style>
  </defs>
  <g>
    <path d="M61.274,36.000 C52.037,36.000 44.549,28.447 44.549,19.132 C44.549,9.815 52.037,2.264 61.274,2.264 C70.511,2.264 78.000,9.815 78.000,19.132 C78.000,28.447 70.511,36.000 61.274,36.000 ZM61.274,6.481 C54.346,6.481 48.730,12.144 48.730,19.132 C48.730,26.118 54.346,31.783 61.274,31.783 C68.202,31.783 73.819,26.118 73.819,19.132 C73.819,12.144 68.202,6.481 61.274,6.481 ZM68.043,22.015 C67.858,22.455 67.630,22.878 67.366,23.275 C67.102,23.666 66.800,24.035 66.469,24.371 C66.137,24.705 65.771,25.009 65.383,25.274 C64.989,25.542 64.569,25.772 64.134,25.958 C63.689,26.147 63.226,26.292 62.754,26.389 C62.269,26.490 61.772,26.540 61.274,26.540 C60.776,26.540 60.279,26.490 59.795,26.389 C59.322,26.292 58.858,26.147 58.414,25.958 C57.979,25.772 57.559,25.542 57.165,25.274 C56.777,25.009 56.412,24.705 56.079,24.371 C55.748,24.035 55.446,23.666 55.183,23.275 C54.918,22.878 54.690,22.455 54.506,22.015 C54.318,21.568 54.174,21.100 54.078,20.624 C53.978,20.135 53.928,19.633 53.928,19.132 C53.928,18.629 53.978,18.128 54.078,17.639 C54.174,17.163 54.318,16.695 54.506,16.247 C54.690,15.808 54.918,15.384 55.183,14.988 C55.446,14.596 55.748,14.228 56.079,13.893 C56.412,13.558 56.777,13.254 57.165,12.988 C57.559,12.720 57.979,12.491 58.414,12.305 C58.858,12.116 59.322,11.971 59.795,11.873 C60.279,11.773 60.776,11.723 61.274,11.723 C61.772,11.723 62.269,11.773 62.754,11.873 C63.226,11.971 63.689,12.116 64.134,12.305 C64.569,12.491 64.989,12.720 65.383,12.988 C65.771,13.254 66.137,13.558 66.469,13.893 C66.800,14.228 67.102,14.596 67.366,14.988 C67.630,15.384 67.858,15.808 68.043,16.247 C68.230,16.695 68.374,17.163 68.471,17.639 C68.571,18.128 68.620,18.629 68.620,19.132 C68.620,19.633 68.571,20.135 68.471,20.624 C68.374,21.100 68.230,21.568 68.043,22.015 ZM64.756,24.242 C65.064,24.027 65.357,23.784 65.622,23.516 C65.901,23.235 66.153,22.927 66.373,22.599 C66.595,22.267 66.786,21.913 66.940,21.545 C67.098,21.171 67.218,20.780 67.299,20.381 C67.317,20.287 67.326,20.191 67.341,20.097 C67.290,20.082 67.221,20.063 67.143,20.043 C67.131,20.040 67.119,20.036 67.106,20.033 C66.929,19.989 66.695,19.937 66.413,19.890 C66.412,19.890 66.411,19.889 66.409,19.889 C65.686,19.769 64.662,19.685 63.557,19.864 C64.305,21.942 64.653,23.669 64.756,24.242 ZM57.836,24.274 C58.166,24.497 58.516,24.690 58.880,24.845 C59.252,25.004 59.640,25.125 60.034,25.207 C60.440,25.290 60.856,25.333 61.274,25.333 C61.692,25.333 62.109,25.290 62.513,25.207 C62.908,25.125 63.297,25.004 63.667,24.845 C63.679,24.841 63.690,24.834 63.702,24.829 C63.580,24.146 63.206,22.313 62.382,20.154 C62.369,20.159 62.356,20.162 62.342,20.167 C61.968,20.298 61.625,20.446 61.300,20.601 C61.254,20.623 61.205,20.644 61.160,20.667 C60.858,20.816 60.580,20.973 60.321,21.135 C60.272,21.165 60.224,21.195 60.177,21.226 C59.926,21.389 59.692,21.554 59.481,21.721 C59.447,21.747 59.417,21.773 59.384,21.800 C59.170,21.973 58.969,22.147 58.794,22.317 C58.794,22.318 58.794,22.318 58.794,22.318 C58.615,22.491 58.461,22.658 58.320,22.820 C58.300,22.842 58.279,22.865 58.260,22.888 C58.132,23.038 58.021,23.179 57.924,23.310 C57.906,23.335 57.888,23.359 57.871,23.383 C57.782,23.507 57.704,23.623 57.643,23.720 C57.633,23.737 57.624,23.751 57.615,23.767 C57.557,23.861 57.508,23.945 57.477,24.003 C57.595,24.096 57.713,24.190 57.836,24.274 ZM55.135,18.932 C55.133,18.999 55.125,19.065 55.125,19.132 C55.125,19.553 55.168,19.973 55.250,20.381 C55.331,20.780 55.451,21.171 55.609,21.545 C55.763,21.913 55.954,22.267 56.175,22.599 C56.326,22.822 56.509,23.020 56.686,23.223 C56.728,23.156 56.791,23.060 56.864,22.953 C56.877,22.933 56.886,22.919 56.900,22.899 C56.978,22.787 57.072,22.658 57.180,22.517 C57.201,22.490 57.221,22.464 57.243,22.435 C57.359,22.288 57.487,22.131 57.634,21.963 C57.656,21.938 57.679,21.913 57.702,21.888 C57.861,21.710 58.033,21.526 58.228,21.337 C58.417,21.153 58.628,20.967 58.851,20.783 C58.886,20.755 58.917,20.727 58.952,20.699 C59.170,20.523 59.406,20.352 59.655,20.187 C59.702,20.156 59.749,20.125 59.797,20.095 C60.054,19.931 60.324,19.776 60.610,19.633 C60.653,19.612 60.698,19.593 60.742,19.572 C61.049,19.427 61.368,19.291 61.709,19.180 C61.789,19.154 61.870,19.134 61.951,19.111 C61.792,18.749 61.625,18.385 61.444,18.028 C58.906,18.793 56.456,18.916 55.467,18.930 L55.467,18.930 C55.326,18.932 55.212,18.933 55.135,18.932 ZM58.676,13.517 C58.385,13.654 58.101,13.808 57.836,13.989 C57.511,14.211 57.205,14.465 56.927,14.746 C56.647,15.026 56.396,15.335 56.175,15.664 C55.954,15.996 55.763,16.350 55.609,16.717 C55.458,17.075 55.344,17.448 55.264,17.827 C55.329,17.827 55.419,17.827 55.530,17.824 C55.532,17.824 55.536,17.824 55.538,17.824 C55.763,17.819 56.076,17.808 56.457,17.783 C56.458,17.783 56.459,17.783 56.460,17.783 C57.419,17.719 58.810,17.565 60.348,17.200 C60.348,17.200 60.348,17.200 60.349,17.199 C60.539,17.155 60.732,17.106 60.926,17.054 C59.968,15.336 58.958,13.908 58.676,13.517 ZM64.712,13.989 C64.384,13.766 64.032,13.573 63.667,13.417 C63.296,13.259 62.908,13.138 62.513,13.056 C62.109,12.972 61.692,12.930 61.274,12.930 C60.856,12.930 60.440,12.972 60.034,13.056 C59.982,13.066 59.931,13.084 59.880,13.096 C60.181,13.506 61.197,14.928 62.135,16.665 C62.380,16.572 62.610,16.473 62.824,16.373 C62.828,16.371 62.832,16.369 62.836,16.367 C64.342,15.655 65.095,14.801 65.328,14.501 C65.128,14.324 64.932,14.139 64.712,13.989 ZM67.299,17.881 C67.218,17.483 67.098,17.093 66.940,16.717 C66.786,16.350 66.595,15.996 66.373,15.664 C66.271,15.511 66.140,15.380 66.024,15.237 C65.772,15.555 64.942,16.463 63.373,17.261 C63.357,17.269 63.340,17.277 63.323,17.285 C63.102,17.396 62.870,17.503 62.619,17.607 C62.767,17.912 62.910,18.221 63.042,18.534 C63.089,18.645 63.128,18.752 63.173,18.862 C63.396,18.834 63.618,18.814 63.838,18.801 C63.876,18.798 63.912,18.797 63.949,18.795 C64.138,18.785 64.322,18.779 64.505,18.777 C64.536,18.777 64.567,18.776 64.598,18.776 C64.807,18.776 65.011,18.780 65.207,18.788 C65.222,18.789 65.236,18.790 65.250,18.790 C65.428,18.798 65.598,18.809 65.763,18.823 C65.802,18.825 65.840,18.828 65.879,18.832 C66.039,18.846 66.192,18.861 66.334,18.877 C66.343,18.878 66.354,18.879 66.363,18.880 C66.516,18.898 66.653,18.917 66.782,18.935 C66.814,18.940 66.842,18.944 66.873,18.949 C66.969,18.964 67.055,18.977 67.132,18.991 C67.154,18.994 67.176,18.998 67.196,19.001 C67.287,19.017 67.362,19.031 67.419,19.043 C67.413,18.652 67.375,18.262 67.299,17.881 Z" class="cls-1"/>
    <path d="M19.460,36.000 C10.222,36.000 2.734,28.447 2.734,19.132 C2.734,9.815 10.222,2.264 19.460,2.264 C28.697,2.264 36.186,9.815 36.186,19.132 C36.186,28.447 28.697,36.000 19.460,36.000 ZM19.460,6.481 C12.532,6.481 6.916,12.144 6.916,19.132 C6.916,26.118 12.532,31.783 19.460,31.783 C26.388,31.783 32.004,26.118 32.004,19.132 C32.004,12.144 26.388,6.481 19.460,6.481 ZM24.689,19.170 L23.634,19.162 L23.648,17.012 L21.516,17.012 L21.516,15.946 L23.618,15.946 L23.618,13.841 L24.708,13.828 L24.721,15.998 L26.775,15.998 L26.775,17.014 L24.689,17.014 L24.689,19.170 ZM18.899,14.449 C19.683,14.753 20.100,15.674 20.100,16.619 C20.100,17.412 19.663,18.095 19.048,18.581 C18.447,19.054 18.333,19.252 18.333,19.655 C18.333,19.999 18.976,20.583 19.314,20.823 C20.298,21.525 20.616,22.177 20.616,23.265 C20.616,24.622 19.314,25.971 16.955,25.971 C14.887,25.971 13.142,25.123 13.142,23.765 C13.142,22.388 14.707,21.033 16.776,21.033 C17.001,21.033 17.234,21.053 17.448,21.053 C17.165,20.775 16.976,20.486 16.976,20.067 C16.976,19.818 17.020,19.526 17.131,19.314 C17.018,19.322 16.903,19.324 16.784,19.324 C15.086,19.324 13.948,18.105 13.948,16.595 C13.948,15.117 15.519,13.841 17.189,13.841 C18.120,13.841 20.914,13.841 20.914,13.841 L20.080,14.449 L18.899,14.449 ZM17.196,21.409 C15.767,21.393 14.486,22.287 14.486,23.362 C14.486,24.458 15.518,25.371 16.948,25.371 C18.957,25.371 19.658,24.515 19.658,23.418 C19.658,23.286 19.642,23.157 19.613,23.031 C19.455,22.410 18.899,22.102 18.123,21.558 C17.840,21.466 17.530,21.412 17.196,21.409 ZM18.761,16.693 C18.595,15.422 17.683,14.402 16.724,14.373 C15.764,14.344 15.121,15.317 15.286,16.589 C15.452,17.859 16.364,18.912 17.324,18.941 C18.283,18.970 18.926,17.964 18.761,16.693 Z" class="cls-1"/>
    <path d="M-22.354,36.000 C-31.592,36.000 -39.080,28.447 -39.080,19.132 C-39.080,9.815 -31.592,2.264 -22.354,2.264 C-13.118,2.264 -5.628,9.815 -5.628,19.132 C-5.628,28.447 -13.118,36.000 -22.354,36.000 ZM-22.354,6.481 C-29.282,6.481 -34.899,12.144 -34.899,19.132 C-34.899,26.118 -29.282,31.783 -22.354,31.783 C-15.427,31.783 -9.810,26.118 -9.810,19.132 C-9.810,12.144 -15.427,6.481 -22.354,6.481 ZM-21.270,22.721 C-22.142,22.721 -22.961,22.246 -23.242,21.707 C-23.242,21.707 -23.711,23.582 -23.809,23.944 C-24.159,25.223 -25.187,26.503 -25.266,26.609 C-25.323,26.682 -25.446,26.659 -25.459,26.562 C-25.481,26.399 -25.743,24.785 -25.434,23.468 C-25.279,22.807 -24.396,19.032 -24.396,19.032 C-24.396,19.032 -24.654,18.513 -24.654,17.744 C-24.654,16.538 -23.960,15.637 -23.097,15.637 C-22.363,15.637 -22.008,16.193 -22.008,16.859 C-22.008,17.604 -22.479,18.716 -22.721,19.747 C-22.924,20.612 -22.291,21.316 -21.447,21.316 C-19.918,21.316 -18.888,19.335 -18.888,16.988 C-18.888,15.203 -20.079,13.868 -22.246,13.868 C-24.694,13.868 -26.221,15.710 -26.221,17.767 C-26.221,18.476 -26.013,18.977 -25.688,19.363 C-25.539,19.541 -25.518,19.613 -25.572,19.817 C-25.611,19.967 -25.699,20.327 -25.737,20.470 C-25.791,20.677 -25.956,20.750 -26.141,20.674 C-27.268,20.210 -27.794,18.964 -27.794,17.564 C-27.794,15.252 -25.860,12.479 -22.025,12.479 C-18.943,12.479 -16.915,14.727 -16.915,17.142 C-16.915,20.336 -18.675,22.721 -21.270,22.721 Z" class="cls-1"/>
    <path d="M-64.168,36.000 C-73.406,36.000 -80.894,28.447 -80.894,19.132 C-80.894,9.815 -73.406,2.264 -64.168,2.264 C-54.932,2.264 -47.443,9.815 -47.443,19.132 C-47.443,28.447 -54.932,36.000 -64.168,36.000 ZM-64.168,6.481 C-71.096,6.481 -76.713,12.144 -76.713,19.132 C-76.713,26.118 -71.096,31.783 -64.168,31.783 C-57.241,31.783 -51.624,26.118 -51.624,19.132 C-51.624,12.144 -57.241,6.481 -64.168,6.481 ZM-68.455,15.489 L-68.455,13.509 C-62.826,13.509 -58.263,18.113 -58.263,23.788 L-60.227,23.788 C-60.227,19.212 -63.916,15.489 -68.455,15.489 ZM-61.831,23.788 L-63.795,23.788 C-63.795,21.196 -65.886,19.087 -68.455,19.087 L-68.455,17.107 C-64.795,17.107 -61.831,20.100 -61.831,23.788 ZM-67.254,21.365 C-66.590,21.365 -66.052,21.907 -66.052,22.576 C-66.052,23.246 -66.590,23.788 -67.254,23.788 C-67.917,23.788 -68.455,23.246 -68.455,22.576 C-68.455,21.907 -67.917,21.365 -67.254,21.365 Z" class="cls-1"/>
    <path d="M-105.460,35.736 C-114.698,35.736 -122.186,28.184 -122.186,18.868 C-122.186,9.552 -114.698,2.000 -105.460,2.000 C-96.223,2.000 -88.734,9.552 -88.734,18.868 C-88.734,28.184 -96.223,35.736 -105.460,35.736 ZM-105.460,6.217 C-112.388,6.217 -118.005,11.881 -118.005,18.868 C-118.005,25.855 -112.388,31.519 -105.460,31.519 C-98.533,31.519 -92.916,25.855 -92.916,18.868 C-92.916,11.881 -98.533,6.217 -105.460,6.217 ZM-104.977,15.526 L-104.980,16.718 L-102.881,16.718 L-103.334,19.110 L-104.917,19.110 L-104.909,25.466 L-107.556,25.474 L-107.564,19.127 L-109.131,19.110 L-109.131,16.710 L-107.547,16.701 L-107.499,15.391 C-107.499,13.589 -106.882,12.460 -104.777,12.460 L-102.843,12.468 L-102.834,14.597 L-103.858,14.671 C-104.678,14.671 -104.977,14.951 -104.977,15.526 Z" class="cls-1"/>
  </g>
</svg>
