<svg xmlns="http://www.w3.org/2000/svg" xmlns:xlink="http://www.w3.org/1999/xlink" preserveAspectRatio="xMidYMid" width="39" height="39" viewBox="0 0 39 39">
  <defs>
    <style>
      .cls-1 {
        fill: #dadada;
        fill-rule: evenodd;
      }
    </style>
  </defs>
  <g>
    <path d="M19.646,36.000 C10.408,36.000 2.920,28.447 2.920,19.132 C2.920,9.815 10.408,2.264 19.646,2.264 C28.882,2.264 36.372,9.815 36.372,19.132 C36.372,28.447 28.882,36.000 19.646,36.000 ZM19.646,6.481 C12.718,6.481 7.101,12.144 7.101,19.132 C7.101,26.118 12.718,31.783 19.646,31.783 C26.573,31.783 32.190,26.118 32.190,19.132 C32.190,12.144 26.573,6.481 19.646,6.481 ZM20.730,22.721 C19.858,22.721 19.039,22.246 18.758,21.707 C18.758,21.707 18.289,23.582 18.191,23.944 C17.841,25.223 16.813,26.503 16.734,26.609 C16.677,26.682 16.554,26.659 16.541,26.562 C16.519,26.399 16.257,24.785 16.566,23.468 C16.721,22.807 17.604,19.032 17.604,19.032 C17.604,19.032 17.346,18.513 17.346,17.744 C17.346,16.538 18.040,15.637 18.903,15.637 C19.637,15.637 19.992,16.193 19.992,16.859 C19.992,17.604 19.521,18.716 19.279,19.747 C19.076,20.612 19.709,21.316 20.553,21.316 C22.082,21.316 23.112,19.335 23.112,16.988 C23.112,15.203 21.921,13.868 19.754,13.868 C17.306,13.868 15.779,15.710 15.779,17.767 C15.779,18.476 15.987,18.977 16.312,19.363 C16.461,19.541 16.482,19.613 16.428,19.817 C16.389,19.967 16.301,20.327 16.263,20.470 C16.209,20.677 16.044,20.750 15.859,20.674 C14.732,20.210 14.206,18.964 14.206,17.564 C14.206,15.252 16.140,12.479 19.975,12.479 C23.057,12.479 25.085,14.727 25.085,17.142 C25.085,20.336 23.325,22.721 20.730,22.721 Z" class="cls-1"/>
    <path d="M-22.168,36.000 C-31.406,36.000 -38.894,28.447 -38.894,19.132 C-38.894,9.815 -31.406,2.264 -22.168,2.264 C-12.932,2.264 -5.443,9.815 -5.443,19.132 C-5.443,28.447 -12.932,36.000 -22.168,36.000 ZM-22.168,6.481 C-29.096,6.481 -34.713,12.144 -34.713,19.132 C-34.713,26.118 -29.096,31.783 -22.168,31.783 C-15.241,31.783 -9.624,26.118 -9.624,19.132 C-9.624,12.144 -15.241,6.481 -22.168,6.481 ZM-26.455,15.489 L-26.455,13.509 C-20.826,13.509 -16.263,18.113 -16.263,23.788 L-18.227,23.788 C-18.227,19.212 -21.916,15.489 -26.455,15.489 ZM-19.831,23.788 L-21.795,23.788 C-21.795,21.196 -23.886,19.087 -26.455,19.087 L-26.455,17.107 C-22.795,17.107 -19.831,20.100 -19.831,23.788 ZM-25.254,21.365 C-24.590,21.365 -24.052,21.907 -24.052,22.576 C-24.052,23.246 -24.590,23.788 -25.254,23.788 C-25.917,23.788 -26.455,23.246 -26.455,22.576 C-26.455,21.907 -25.917,21.365 -25.254,21.365 Z" class="cls-1"/>
    <path d="M-63.460,35.736 C-72.698,35.736 -80.186,28.184 -80.186,18.868 C-80.186,9.552 -72.698,2.000 -63.460,2.000 C-54.223,2.000 -46.734,9.552 -46.734,18.868 C-46.734,28.184 -54.223,35.736 -63.460,35.736 ZM-63.460,6.217 C-70.388,6.217 -76.005,11.881 -76.005,18.868 C-76.005,25.855 -70.388,31.519 -63.460,31.519 C-56.533,31.519 -50.916,25.855 -50.916,18.868 C-50.916,11.881 -56.533,6.217 -63.460,6.217 ZM-62.977,15.526 L-62.980,16.718 L-60.881,16.718 L-61.334,19.110 L-62.917,19.110 L-62.909,25.466 L-65.556,25.474 L-65.564,19.127 L-67.131,19.110 L-67.131,16.710 L-65.547,16.701 L-65.499,15.391 C-65.499,13.589 -64.882,12.460 -62.777,12.460 L-60.843,12.468 L-60.834,14.597 L-61.858,14.671 C-62.678,14.671 -62.977,14.951 -62.977,15.526 Z" class="cls-1"/>
  </g>
</svg>
