<svg xmlns="http://www.w3.org/2000/svg" xmlns:xlink="http://www.w3.org/1999/xlink" preserveAspectRatio="xMidYMid" width="39" height="39" viewBox="0 0 39 39">
  <defs>
    <style>
      .cls-1 {
        fill: #dadada;
        fill-rule: evenodd;
      }
    </style>
  </defs>
  <g>
    <path d="M19.832,36.000 C10.594,36.000 3.106,28.447 3.106,19.132 C3.106,9.815 10.594,2.264 19.832,2.264 C29.068,2.264 36.557,9.815 36.557,19.132 C36.557,28.447 29.068,36.000 19.832,36.000 ZM19.832,6.481 C12.904,6.481 7.287,12.144 7.287,19.132 C7.287,26.118 12.904,31.783 19.832,31.783 C26.759,31.783 32.376,26.118 32.376,19.132 C32.376,12.144 26.759,6.481 19.832,6.481 ZM15.545,15.489 L15.545,13.509 C21.174,13.509 25.737,18.113 25.737,23.788 L23.773,23.788 C23.773,19.212 20.084,15.489 15.545,15.489 ZM22.169,23.788 L20.205,23.788 C20.205,21.196 18.114,19.087 15.545,19.087 L15.545,17.107 C19.205,17.107 22.169,20.100 22.169,23.788 ZM16.746,21.365 C17.410,21.365 17.948,21.907 17.948,22.576 C17.948,23.246 17.410,23.788 16.746,23.788 C16.083,23.788 15.545,23.246 15.545,22.576 C15.545,21.907 16.083,21.365 16.746,21.365 Z" class="cls-1"/>
    <path d="M-21.460,35.736 C-30.698,35.736 -38.186,28.184 -38.186,18.868 C-38.186,9.552 -30.698,2.000 -21.460,2.000 C-12.223,2.000 -4.734,9.552 -4.734,18.868 C-4.734,28.184 -12.223,35.736 -21.460,35.736 ZM-21.460,6.217 C-28.388,6.217 -34.005,11.881 -34.005,18.868 C-34.005,25.855 -28.388,31.519 -21.460,31.519 C-14.533,31.519 -8.916,25.855 -8.916,18.868 C-8.916,11.881 -14.533,6.217 -21.460,6.217 ZM-20.977,15.526 L-20.980,16.718 L-18.881,16.718 L-19.334,19.110 L-20.917,19.110 L-20.909,25.466 L-23.556,25.474 L-23.564,19.127 L-25.131,19.110 L-25.131,16.710 L-23.547,16.701 L-23.499,15.391 C-23.499,13.589 -22.882,12.460 -20.777,12.460 L-18.843,12.468 L-18.834,14.597 L-19.858,14.671 C-20.678,14.671 -20.977,14.951 -20.977,15.526 Z" class="cls-1"/>
  </g>
</svg>
