<svg xmlns="http://www.w3.org/2000/svg" xmlns:xlink="http://www.w3.org/1999/xlink" preserveAspectRatio="xMidYMid" width="39" height="39" viewBox="0 0 39 39">
  <defs>
    <style>
      .cls-1 {
        fill: #dadada;
        fill-rule: evenodd;
      }
    </style>
  </defs>
  <path d="M19.726,35.736 C10.488,35.736 3.000,28.184 3.000,18.868 C3.000,9.552 10.488,2.000 19.726,2.000 C28.962,2.000 36.451,9.552 36.451,18.868 C36.451,28.184 28.962,35.736 19.726,35.736 ZM19.726,6.217 C12.798,6.217 7.181,11.881 7.181,18.868 C7.181,25.855 12.798,31.519 19.726,31.519 C26.653,31.519 32.270,25.855 32.270,18.868 C32.270,11.881 26.653,6.217 19.726,6.217 ZM24.866,16.646 C24.871,16.762 24.873,16.879 24.873,16.997 C24.873,20.577 22.171,24.707 17.228,24.707 C15.711,24.707 14.299,24.258 13.109,23.489 C13.320,23.514 13.533,23.527 13.750,23.527 C15.009,23.527 16.168,23.094 17.087,22.367 C15.912,22.345 14.919,21.562 14.577,20.485 C14.742,20.517 14.910,20.534 15.083,20.534 C15.328,20.534 15.565,20.501 15.791,20.438 C14.562,20.189 13.636,19.094 13.636,17.781 C13.636,17.770 13.636,17.759 13.636,17.747 C13.998,17.950 14.412,18.072 14.853,18.086 C14.132,17.600 13.657,16.771 13.657,15.831 C13.657,15.334 13.790,14.868 14.021,14.468 C15.347,16.108 17.326,17.187 19.559,17.299 C19.514,17.101 19.490,16.894 19.490,16.682 C19.490,15.186 20.693,13.972 22.177,13.972 C22.950,13.972 23.648,14.302 24.138,14.828 C24.750,14.707 25.325,14.481 25.844,14.171 C25.644,14.803 25.218,15.334 24.663,15.670 C25.207,15.604 25.725,15.459 26.206,15.243 C25.846,15.786 25.391,16.264 24.866,16.646 Z" class="cls-1"/>
</svg>
