<svg xmlns="http://www.w3.org/2000/svg" xmlns:xlink="http://www.w3.org/1999/xlink" preserveAspectRatio="xMidYMid" width="70" height="79" viewBox="0 0 70 79">
  <defs>
    <style>
      .cls-1 {
        fill: #737373;
      }

      .cls-1, .cls-2 {
        fill-rule: evenodd;
      }

      .cls-2 {
        fill: #423e3e;
      }
    </style>
  </defs>
  <g>
    <path d="M757.428,62.000 L714.571,62.000 C712.598,62.000 710.999,60.395 710.999,58.416 L710.999,22.583 C710.999,20.604 712.598,19.000 714.571,19.000 L757.428,19.000 C759.400,19.000 760.999,20.604 760.999,22.583 L760.999,58.416 C760.999,60.395 759.400,62.000 757.428,62.000 ZM717.249,21.687 C716.263,21.687 715.464,22.489 715.464,23.479 C715.464,24.468 716.263,25.271 717.249,25.271 C718.235,25.271 719.035,24.468 719.035,23.479 C719.035,22.489 718.235,21.687 717.249,21.687 ZM722.606,21.687 C721.620,21.687 720.821,22.489 720.821,23.479 C720.821,24.468 721.620,25.271 722.606,25.271 C723.593,25.271 724.392,24.468 724.392,23.479 C724.392,22.489 723.593,21.687 722.606,21.687 ZM728.075,21.687 C727.089,21.687 726.289,22.489 726.289,23.479 C726.289,24.468 727.089,25.271 728.075,25.271 C729.061,25.271 729.861,24.468 729.861,23.479 C729.861,22.489 729.061,21.687 728.075,21.687 ZM757.000,22.000 L732.000,22.000 L732.000,25.000 L757.000,25.000 L757.000,22.000 ZM757.000,28.000 L715.000,28.000 L715.000,58.000 L757.000,58.000 L757.000,28.000 Z" class="cls-1"/>
    <path d="M538.082,62.994 L536.988,64.086 C535.780,65.293 533.821,65.293 532.613,64.086 L523.865,55.349 C522.850,54.336 522.740,52.819 523.428,51.636 L518.645,46.860 C516.073,48.766 512.899,49.908 509.449,49.908 C500.908,49.908 493.983,42.992 493.983,34.462 C493.983,25.931 500.908,19.016 509.449,19.016 C517.991,19.016 524.915,25.931 524.915,34.462 C524.915,38.433 523.402,42.042 520.936,44.779 L525.615,49.452 C526.799,48.764 528.319,48.875 529.333,49.888 L538.082,58.626 C539.290,59.832 539.290,61.788 538.082,62.994 ZM521.017,34.397 C521.017,28.000 515.823,22.813 509.417,22.813 C507.633,22.813 505.963,23.248 504.452,23.967 C505.260,24.795 506.477,26.033 506.542,26.033 C505.285,26.033 501.171,30.142 501.171,31.494 C501.171,31.428 499.861,30.187 499.004,29.382 C498.267,30.905 497.817,32.592 497.817,34.397 C497.817,40.795 503.011,45.982 509.417,45.982 C515.823,45.982 521.017,40.795 521.017,34.397 Z" class="cls-1"/>
    <path d="M300.551,66.000 L257.448,66.000 C255.543,66.000 253.999,64.433 253.999,62.500 L253.999,32.750 C253.999,30.817 255.543,29.250 257.448,29.250 L260.896,29.250 L260.896,24.000 L274.689,24.109 L274.683,29.280 L300.551,29.250 C302.455,29.250 303.999,30.817 303.999,32.750 L303.999,62.500 C303.999,64.433 302.455,66.000 300.551,66.000 ZM271.241,27.500 L264.344,27.500 L264.344,32.750 L271.241,32.750 L271.241,27.500 ZM272.965,36.177 C266.299,36.177 260.896,41.661 260.896,48.427 C260.896,55.192 266.299,60.677 272.965,60.677 C279.630,60.677 285.034,55.192 285.034,48.427 C285.034,41.661 279.630,36.177 272.965,36.177 ZM296.241,33.661 C294.336,33.661 292.792,35.228 292.792,37.161 C292.792,39.094 294.336,40.661 296.241,40.661 C298.145,40.661 299.689,39.094 299.689,37.161 C299.689,35.228 298.145,33.661 296.241,33.661 ZM272.966,56.593 C268.681,56.593 265.207,53.068 265.207,48.719 C265.207,44.369 268.681,40.844 272.966,40.844 C277.250,40.844 280.724,44.369 280.724,48.719 C280.724,53.068 277.250,56.593 272.966,56.593 Z" class="cls-2"/>
    <path d="M61.438,63.267 L60.407,63.267 C60.239,63.873 59.998,64.448 59.691,64.981 L60.644,65.934 C61.254,66.544 61.254,67.532 60.644,68.142 L60.092,68.694 C59.482,69.304 58.493,69.304 57.883,68.694 L56.923,67.735 C56.391,68.038 55.818,68.274 55.214,68.439 L55.214,69.439 C55.214,70.301 54.514,71.000 53.652,71.000 L52.870,71.000 C52.008,71.000 51.308,70.301 51.308,69.439 L51.308,68.439 C50.704,68.274 50.131,68.038 49.598,67.735 L48.639,68.694 C48.029,69.304 47.040,69.304 46.430,68.694 L45.878,68.142 C45.268,67.532 45.268,66.544 45.878,65.934 L46.831,64.981 C46.524,64.448 46.283,63.873 46.115,63.267 L45.084,63.267 C44.221,63.267 43.522,62.568 43.522,61.705 L43.522,60.925 C43.522,60.063 44.221,59.364 45.084,59.364 L46.103,59.364 C46.264,58.763 46.495,58.191 46.794,57.661 L45.878,56.745 C45.268,56.135 45.268,55.146 45.878,54.537 L46.430,53.985 C47.040,53.375 48.029,53.375 48.639,53.985 L49.538,54.883 C50.087,54.563 50.681,54.314 51.308,54.143 L51.308,53.094 C51.308,52.232 52.008,51.533 52.870,51.533 L53.652,51.533 C54.514,51.533 55.214,52.232 55.214,53.094 L55.214,54.143 C55.841,54.314 56.435,54.563 56.984,54.883 L57.883,53.985 C58.493,53.375 59.482,53.375 60.092,53.985 L60.644,54.537 C61.254,55.146 61.254,56.135 60.644,56.745 L59.728,57.661 C60.026,58.191 60.257,58.763 60.419,59.364 L61.438,59.364 C62.300,59.364 63.000,60.063 63.000,60.925 L63.000,61.705 C63.000,62.568 62.300,63.267 61.438,63.267 ZM53.261,57.046 C50.888,57.046 48.965,58.968 48.965,61.340 C48.965,63.711 50.888,65.633 53.261,65.633 C55.633,65.633 57.557,63.711 57.557,61.340 C57.557,58.968 55.633,57.046 53.261,57.046 ZM53.261,63.242 C52.182,63.242 51.308,62.369 51.308,61.291 C51.308,60.213 52.182,59.339 53.261,59.339 C54.339,59.339 55.214,60.213 55.214,61.291 C55.214,62.369 54.339,63.242 53.261,63.242 ZM49.940,37.193 L47.813,37.193 C47.468,38.444 46.971,39.629 46.338,40.729 L48.303,42.694 C49.561,43.951 49.561,45.989 48.303,47.246 L47.165,48.384 C45.907,49.642 43.867,49.642 42.610,48.384 L40.632,46.407 C39.534,47.032 38.352,47.518 37.106,47.857 L37.106,49.919 C37.106,51.697 35.664,53.138 33.885,53.138 L32.275,53.138 C30.496,53.138 29.054,51.697 29.054,49.919 L29.054,47.857 C27.808,47.518 26.626,47.032 25.529,46.407 L23.551,48.384 C22.293,49.642 20.254,49.642 18.996,48.384 L17.857,47.246 C16.599,45.989 16.599,43.951 17.857,42.694 L19.823,40.729 C19.189,39.629 18.693,38.444 18.347,37.193 L16.221,37.193 C14.442,37.193 13.000,35.752 13.000,33.974 L13.000,32.365 C13.000,30.587 14.442,29.146 16.221,29.146 L18.321,29.146 C18.654,27.907 19.131,26.728 19.747,25.635 L17.857,23.746 C16.599,22.489 16.599,20.451 17.857,19.193 L18.996,18.055 C20.254,16.798 22.293,16.798 23.551,18.055 L25.403,19.907 C26.537,19.248 27.760,18.734 29.054,18.382 L29.054,16.219 C29.054,14.441 30.496,13.000 32.275,13.000 L33.885,13.000 C35.664,13.000 37.106,14.441 37.106,16.219 L37.106,18.381 C38.400,18.734 39.624,19.248 40.757,19.907 L42.610,18.055 C43.867,16.798 45.907,16.798 47.165,18.055 L48.303,19.193 C49.561,20.451 49.561,22.489 48.303,23.746 L46.414,25.635 C47.030,26.728 47.506,27.907 47.839,29.146 L49.940,29.146 C51.718,29.146 53.161,30.587 53.161,32.365 L53.161,33.974 C53.161,35.752 51.718,37.193 49.940,37.193 ZM33.080,24.367 C28.188,24.367 24.223,28.331 24.223,33.220 C24.223,38.109 28.188,42.073 33.080,42.073 C37.972,42.073 41.938,38.109 41.938,33.220 C41.938,28.331 37.972,24.367 33.080,24.367 ZM33.080,37.143 C30.857,37.143 29.054,35.342 29.054,33.119 C29.054,30.897 30.857,29.095 33.080,29.095 C35.304,29.095 37.106,30.897 37.106,33.119 C37.106,35.342 35.304,37.143 33.080,37.143 Z" class="cls-1"/>
  </g>
</svg>
