<svg xmlns="http://www.w3.org/2000/svg" xmlns:xlink="http://www.w3.org/1999/xlink" preserveAspectRatio="xMidYMid" width="70" height="79" viewBox="0 0 70 79">
  <defs>
    <style>
      .cls-1 {
        fill: #737373;
      }

      .cls-1, .cls-2 {
        fill-rule: evenodd;
      }

      .cls-2 {
        fill: #423e3e;
      }
    </style>
  </defs>
  <g>
    <path d="M277.428,62.000 L234.571,62.000 C232.598,62.000 230.999,60.395 230.999,58.416 L230.999,22.583 C230.999,20.604 232.598,19.000 234.571,19.000 L277.428,19.000 C279.400,19.000 280.999,20.604 280.999,22.583 L280.999,58.416 C280.999,60.395 279.400,62.000 277.428,62.000 ZM237.249,21.687 C236.263,21.687 235.464,22.489 235.464,23.479 C235.464,24.468 236.263,25.271 237.249,25.271 C238.235,25.271 239.035,24.468 239.035,23.479 C239.035,22.489 238.235,21.687 237.249,21.687 ZM242.606,21.687 C241.620,21.687 240.821,22.489 240.821,23.479 C240.821,24.468 241.620,25.271 242.606,25.271 C243.593,25.271 244.392,24.468 244.392,23.479 C244.392,22.489 243.593,21.687 242.606,21.687 ZM248.075,21.687 C247.089,21.687 246.289,22.489 246.289,23.479 C246.289,24.468 247.089,25.271 248.075,25.271 C249.061,25.271 249.861,24.468 249.861,23.479 C249.861,22.489 249.061,21.687 248.075,21.687 ZM277.000,22.000 L252.000,22.000 L252.000,25.000 L277.000,25.000 L277.000,22.000 ZM277.000,28.000 L235.000,28.000 L235.000,58.000 L277.000,58.000 L277.000,28.000 Z" class="cls-1"/>
    <path d="M58.082,62.994 L56.988,64.086 C55.780,65.293 53.821,65.293 52.613,64.086 L43.865,55.349 C42.850,54.336 42.740,52.819 43.428,51.636 L38.645,46.860 C36.073,48.766 32.899,49.908 29.449,49.908 C20.908,49.908 13.983,42.992 13.983,34.462 C13.983,25.931 20.908,19.016 29.449,19.016 C37.991,19.016 44.915,25.931 44.915,34.462 C44.915,38.433 43.402,42.042 40.936,44.779 L45.615,49.452 C46.799,48.764 48.319,48.875 49.333,49.888 L58.082,58.626 C59.290,59.832 59.290,61.788 58.082,62.994 ZM41.017,34.397 C41.017,28.000 35.823,22.813 29.417,22.813 C27.633,22.813 25.963,23.248 24.452,23.967 C25.260,24.795 26.477,26.033 26.542,26.033 C25.285,26.033 21.171,30.142 21.171,31.494 C21.171,31.428 19.861,30.187 19.004,29.382 C18.267,30.905 17.817,32.592 17.817,34.397 C17.817,40.795 23.011,45.982 29.417,45.982 C35.823,45.982 41.017,40.795 41.017,34.397 Z" class="cls-1"/>
    <path d="M-179.449,66.000 L-222.552,66.000 C-224.457,66.000 -226.001,64.433 -226.001,62.500 L-226.001,32.750 C-226.001,30.817 -224.457,29.250 -222.552,29.250 L-219.104,29.250 L-219.104,24.000 L-205.311,24.109 L-205.317,29.280 L-179.449,29.250 C-177.545,29.250 -176.001,30.817 -176.001,32.750 L-176.001,62.500 C-176.001,64.433 -177.545,66.000 -179.449,66.000 ZM-208.759,27.500 L-215.656,27.500 L-215.656,32.750 L-208.759,32.750 L-208.759,27.500 ZM-207.035,36.177 C-213.701,36.177 -219.104,41.661 -219.104,48.427 C-219.104,55.192 -213.701,60.677 -207.035,60.677 C-200.370,60.677 -194.966,55.192 -194.966,48.427 C-194.966,41.661 -200.370,36.177 -207.035,36.177 ZM-183.759,33.661 C-185.664,33.661 -187.208,35.228 -187.208,37.161 C-187.208,39.094 -185.664,40.661 -183.759,40.661 C-181.855,40.661 -180.311,39.094 -180.311,37.161 C-180.311,35.228 -181.855,33.661 -183.759,33.661 ZM-207.034,56.593 C-211.319,56.593 -214.793,53.068 -214.793,48.719 C-214.793,44.369 -211.319,40.844 -207.034,40.844 C-202.750,40.844 -199.276,44.369 -199.276,48.719 C-199.276,53.068 -202.750,56.593 -207.034,56.593 Z" class="cls-2"/>
    <path d="M-418.562,63.267 L-419.593,63.267 C-419.761,63.873 -420.002,64.448 -420.309,64.981 L-419.356,65.934 C-418.746,66.544 -418.746,67.532 -419.356,68.142 L-419.908,68.694 C-420.518,69.304 -421.507,69.304 -422.117,68.694 L-423.077,67.735 C-423.609,68.038 -424.182,68.274 -424.786,68.439 L-424.786,69.439 C-424.786,70.301 -425.486,71.000 -426.348,71.000 L-427.130,71.000 C-427.992,71.000 -428.692,70.301 -428.692,69.439 L-428.692,68.439 C-429.296,68.274 -429.869,68.038 -430.402,67.735 L-431.361,68.694 C-431.971,69.304 -432.960,69.304 -433.570,68.694 L-434.122,68.142 C-434.732,67.532 -434.732,66.544 -434.122,65.934 L-433.169,64.981 C-433.476,64.448 -433.717,63.873 -433.885,63.267 L-434.916,63.267 C-435.779,63.267 -436.478,62.568 -436.478,61.705 L-436.478,60.925 C-436.478,60.063 -435.779,59.364 -434.916,59.364 L-433.897,59.364 C-433.736,58.763 -433.505,58.191 -433.206,57.661 L-434.122,56.745 C-434.732,56.135 -434.732,55.146 -434.122,54.537 L-433.570,53.985 C-432.960,53.375 -431.971,53.375 -431.361,53.985 L-430.462,54.883 C-429.913,54.563 -429.319,54.314 -428.692,54.143 L-428.692,53.094 C-428.692,52.232 -427.992,51.533 -427.130,51.533 L-426.348,51.533 C-425.486,51.533 -424.786,52.232 -424.786,53.094 L-424.786,54.143 C-424.159,54.314 -423.565,54.563 -423.016,54.883 L-422.117,53.985 C-421.507,53.375 -420.518,53.375 -419.908,53.985 L-419.356,54.537 C-418.746,55.146 -418.746,56.135 -419.356,56.745 L-420.272,57.661 C-419.974,58.191 -419.743,58.763 -419.581,59.364 L-418.562,59.364 C-417.700,59.364 -417.000,60.063 -417.000,60.925 L-417.000,61.705 C-417.000,62.568 -417.700,63.267 -418.562,63.267 ZM-426.739,57.046 C-429.112,57.046 -431.035,58.968 -431.035,61.340 C-431.035,63.711 -429.112,65.633 -426.739,65.633 C-424.367,65.633 -422.443,63.711 -422.443,61.340 C-422.443,58.968 -424.367,57.046 -426.739,57.046 ZM-426.739,63.242 C-427.818,63.242 -428.692,62.369 -428.692,61.291 C-428.692,60.213 -427.818,59.339 -426.739,59.339 C-425.661,59.339 -424.786,60.213 -424.786,61.291 C-424.786,62.369 -425.661,63.242 -426.739,63.242 ZM-430.060,37.193 L-432.187,37.193 C-432.532,38.444 -433.029,39.629 -433.662,40.729 L-431.697,42.694 C-430.439,43.951 -430.439,45.989 -431.697,47.246 L-432.835,48.384 C-434.093,49.642 -436.133,49.642 -437.390,48.384 L-439.368,46.407 C-440.466,47.032 -441.648,47.518 -442.894,47.857 L-442.894,49.919 C-442.894,51.697 -444.336,53.138 -446.115,53.138 L-447.725,53.138 C-449.504,53.138 -450.946,51.697 -450.946,49.919 L-450.946,47.857 C-452.192,47.518 -453.374,47.032 -454.471,46.407 L-456.449,48.384 C-457.707,49.642 -459.746,49.642 -461.004,48.384 L-462.143,47.246 C-463.401,45.989 -463.401,43.951 -462.143,42.694 L-460.177,40.729 C-460.811,39.629 -461.307,38.444 -461.653,37.193 L-463.779,37.193 C-465.558,37.193 -467.000,35.752 -467.000,33.974 L-467.000,32.365 C-467.000,30.587 -465.558,29.146 -463.779,29.146 L-461.679,29.146 C-461.346,27.907 -460.869,26.728 -460.253,25.635 L-462.143,23.746 C-463.401,22.489 -463.401,20.451 -462.143,19.193 L-461.004,18.055 C-459.746,16.798 -457.707,16.798 -456.449,18.055 L-454.597,19.907 C-453.463,19.248 -452.240,18.734 -450.946,18.382 L-450.946,16.219 C-450.946,14.441 -449.504,13.000 -447.725,13.000 L-446.115,13.000 C-444.336,13.000 -442.894,14.441 -442.894,16.219 L-442.894,18.381 C-441.600,18.734 -440.376,19.248 -439.243,19.907 L-437.390,18.055 C-436.133,16.798 -434.093,16.798 -432.835,18.055 L-431.697,19.193 C-430.439,20.451 -430.439,22.489 -431.697,23.746 L-433.586,25.635 C-432.970,26.728 -432.494,27.907 -432.161,29.146 L-430.060,29.146 C-428.282,29.146 -426.839,30.587 -426.839,32.365 L-426.839,33.974 C-426.839,35.752 -428.282,37.193 -430.060,37.193 ZM-446.920,24.367 C-451.812,24.367 -455.777,28.331 -455.777,33.220 C-455.777,38.109 -451.812,42.073 -446.920,42.073 C-442.028,42.073 -438.062,38.109 -438.062,33.220 C-438.062,28.331 -442.028,24.367 -446.920,24.367 ZM-446.920,37.143 C-449.143,37.143 -450.946,35.342 -450.946,33.119 C-450.946,30.897 -449.143,29.095 -446.920,29.095 C-444.696,29.095 -442.894,30.897 -442.894,33.119 C-442.894,35.342 -444.696,37.143 -446.920,37.143 Z" class="cls-1"/>
  </g>
</svg>
